# xmcd
#
# Track frame offsets:
#	150
#	21255
#	43296
#	65425
#	86141
#	104570
#	121345
#	139970
#	155440
#	175275
#
# Disc length: 2458 seconds
#
# Revision: 0
# Processed by: cddbd v1.5.2PL0 Copyright (c) Steve Scherf et al.
# Submitted via: EasyCDDAExtractor 15.2.5.1
#
DISCID=9009980a
DTITLE=김성호 - 5집 vol.5 (2001) by oreum.com
DYEAR=2001
DGENRE=Pop
TTITLE0=백년도 못 살면서
TTITLE1=우리는 사랑을 모르고 외로워하지
TTITLE2=사람들은 무서운 것이 없어
TTITLE3=나만이 할 수 있는 건
TTITLE4=나는 외로움 그대는 그리움 - 박영미
TTITLE5=향수
TTITLE6=슬픈 인어공주를 위해 - 김지연, 김성호
TTITLE7=바다
TTITLE8=내 단 하나의 소원
TTITLE9=시간의 먼지 속으로(연주곡)
EXTD=
EXTT0=
EXTT1=
EXTT2=
EXTT3=
EXTT4=
EXTT5=
EXTT6=
EXTT7=
EXTT8=
EXTT9=
PLAYORDER=
